<svg id="Layer_1" enable-background="new 0 0 512 512" height="512" viewBox="0 0 512 512" width="512" xmlns="http://www.w3.org/2000/svg"><g><path d="m336 81.574v-15c0-16.569-13.431-30-30-30h-100c-16.569 0-30 13.431-30 30v15z" fill="#ffde46"/><path clip-rule="evenodd" d="m420.783 211.426-24.756-82.529c-6.229-20.766-24.611-34.443-46.291-34.443h-187.505c-21.683 0-40.067 13.681-46.294 34.451l-24.738 82.521z" fill="#f9f9f9" fill-rule="evenodd"/><path d="m306 36.574h-50.01v45h80.01v-15c0-16.568-13.431-30-30-30z" fill="#ffcd00"/><path clip-rule="evenodd" d="m255.99 211.426h164.793l-24.756-82.529c-6.229-20.766-24.611-34.443-46.291-34.443h-93.746z" fill="#e2dff4" fill-rule="evenodd"/><path d="m106.859 211.426 23.447-78.214c4.327-14.433 16.858-23.759 31.925-23.759h187.505c15.064 0 27.596 9.323 31.924 23.753l23.464 78.22h31.321l-26.049-86.839c-8.098-26.996-32.475-45.134-60.659-45.134h-187.506c-28.188 0-52.567 18.142-60.662 45.144l-26.03 86.829z" fill="#fdbf00"/><path d="m410.395 124.587c-8.098-26.996-32.475-45.134-60.659-45.134h-93.746v30h93.745c15.064 0 27.596 9.323 31.924 23.753l23.464 78.22h31.321z" fill="#ff8856"/><g><path d="m394.872 356.426h-273.191s-107.162-95.152-106.174-100c6.968-34.192 37.273-60 73.493-60h334c36.186 0 66.468 25.759 73.473 59.904 1.001 4.877-101.601 100.096-101.601 100.096z" fill="#ffde46"/></g><path d="m423 196.426h-167.01v160h138.882s102.602-95.218 101.601-100.096c-7.005-34.145-37.287-59.904-73.473-59.904z" fill="#ffcd00"/><g><path d="m343 356.426h-174c-8.284 0-15-6.716-15-15v-40c0-24.813 20.187-45 45-45h114c24.813 0 45 20.187 45 45v40c0 8.284-6.716 15-15 15z" fill="#00347b"/></g><path d="m124 341.426v-40c0-24.813-20.187-45-45-45h-63.491c-.988 4.848-1.509 9.864-1.509 15v70c0 8.284 6.716 15 15 15h80c8.284 0 15-6.716 15-15z" fill="#fff36c"/><path d="m498 341.426v-70c0-5.136-.521-10.152-1.509-15h-63.491c-24.813 0-45 20.187-45 45v40c0 8.284 6.716 15 15 15h80c8.284 0 15-6.716 15-15z" fill="#ffde46"/><g><path d="m109 475.426h-65c-16.569 0-30-13.431-30-30v-69c0-16.569 13.431-30 30-30h65c16.569 0 30 13.431 30 30v69c0 16.568-13.431 30-30 30z" fill="#00347b"/></g><g><path d="m468 475.426h-65c-16.569 0-30-13.431-30-30v-69c0-16.569 13.431-30 30-30h65c16.569 0 30 13.431 30 30v69c0 16.568-13.431 30-30 30z" fill="#001737"/></g><path d="m313 256.426h-57.01v100h87.01c8.284 0 15-6.716 15-15v-40c0-24.814-20.187-45-45-45z" fill="#001737"/><g><path d="m497 404.426h-482c-8.284 0-15-6.716-15-15v-48c0-8.284 6.716-15 15-15h482c8.284 0 15 6.716 15 15v48c0 8.284-6.716 15-15 15z" fill="#e2dff4"/></g><path d="m497 326.426h-241.01v78h241.01c8.284 0 15-6.716 15-15v-48c0-8.285-6.716-15-15-15z" fill="#bebcdd"/></g></svg>